<svg width="282" height="443" viewBox="1300 0 282 443" fill="none" xmlns="http://www.w3.org/2000/svg">
<path fill-rule="evenodd" clip-rule="evenodd" d="M873.23 691.013C878.18 691.059 883.294 689.831 888.586 686.893C891.976 685.019 894.996 682.649 897.619 679.793C900.826 676.32 903.479 672.387 904.847 667.833C908.524 655.553 901.44 638.51 887.828 636.064C876.654 634.049 863.425 642.711 858.846 652.63L856.726 655.424C856.956 655.781 844.91 647.052 849.285 644.934C855.39 641.956 862.288 640.696 868.474 637.677C871.911 635.989 875.279 634.115 878.655 632.296C891.153 625.556 909.509 611.06 922.764 623.972C922.124 625.118 922.846 628.066 922.964 629.292C923.442 634.52 924.109 639.686 925.202 644.82C929.128 663.023 942.183 675.029 959.154 681.581C970.703 686.039 981.868 686.958 992.604 680.35C996.572 677.909 999.924 674.968 1001.63 673.704C1012.04 665.966 1010.93 652.395 1000.37 646.381C991.474 641.311 979.8 644.796 970.912 640.674C964.052 637.492 964.197 626.214 971.553 623.716C982.919 619.834 989.061 621.42 997.251 623.906C1009.8 627.723 1022.03 635.12 1025.35 648.597C1026.69 654.025 1026.18 659.703 1025.02 665.114C1019.67 689.898 993.496 700.711 971.013 704.643C946.993 708.849 900.686 699.925 873.23 691.013ZM1326.63 590.148C1326.77 590.589 1324.14 590.5 1323.89 590.467C1321.32 590.21 1318.78 589.43 1316.68 587.781C1311.55 583.752 1315.87 578.156 1313.67 577.472C1310.96 576.619 1307.5 581.766 1308.31 587.446C1309.18 593.62 1314.85 600.37 1324.79 600.118C1329.35 599.996 1333.5 598.419 1337.45 596.407C1355.11 587.464 1368.51 569.418 1378.85 553.054C1381.27 549.215 1383.77 545.369 1385.8 541.294C1386.6 539.683 1387.76 537.421 1387.37 535.536C1386.7 532.315 1380.37 534.011 1378.42 534.393C1368.62 536.309 1358 537.091 1348.1 535.552C1334.27 533.396 1320.51 530.882 1306.67 528.759C1299.07 527.603 1289.97 524.679 1282.77 528.26C1271.01 534.113 1266.47 549.895 1261.88 561.132C1257.36 572.221 1252.34 582.806 1244.75 592.051C1244.75 592.051 1260.89 598.709 1237.69 624.547C1231.32 631.642 1224.57 636.709 1218.31 643.522C1209.78 652.823 1201.01 661.668 1192.08 670.607C1184.71 678.002 1177.01 685.964 1167.86 691.213C1167.87 694.6 1175.66 697.856 1177.89 698.89C1189.97 704.511 1203.92 703.809 1216.93 702.675C1236.25 701.008 1264.46 690.226 1284.88 673.89C1308.57 654.938 1324.29 631.09 1324.69 630.388C1312.56 629.991 1296.35 621.878 1289.21 610.692C1281.39 598.411 1279.62 582.487 1285.82 569.481C1292.44 555.569 1307.78 547.621 1308.35 547.364C1311.7 545.774 1315.27 544.379 1318.87 543.455C1329.6 540.688 1342.8 541.625 1350.94 549.915C1357.86 556.938 1359.74 568.694 1355.32 577.069C1350.4 586.319 1338.22 591.794 1326.63 590.148ZM845.589 679.996C850.578 682.24 856.365 684.708 863.465 687.533C866.333 688.68 869.618 689.847 873.23 691.013C863.515 690.965 854.376 686.11 845.589 679.996C828.414 672.261 820.786 667.165 802.012 658.875C784.473 651.138 765.305 646.984 746.746 642.78C731.053 639.235 715.496 638.568 699.561 636.996C695.821 636.625 684.877 633.188 725.806 618.685C756.481 607.814 793.075 590.849 807.741 580.822C833.538 563.191 862.08 546.657 880.188 520.529C891.198 504.619 911.022 471.976 935.523 456.758C956.452 443.748 972.934 442.543 986.814 445.956C1007.28 450.955 1022.09 460.474 1037.98 470.017C1066.34 487.039 1095.03 500.494 1124.61 504.008C1157.42 507.882 1191.28 500.301 1226.41 488.808C1260.65 477.585 1294.2 454.972 1324.08 435.158C1395.47 387.807 1450.48 325.159 1491.16 253.667C1500.1 237.93 1514.14 212.579 1525.75 182.841C1534.69 159.971 1541.42 134.171 1548.02 110.406C1559.6 68.7662 1562.77 28.6521 1563.78 21.2908C1566.58 0.946158 1570.91 -20.4494 1583.19 -37.4208C1586.43 -41.919 1590.37 -46.5139 1595 -49.6467C1596.32 -50.5405 1599.14 -52.3368 1600.47 -50.477C1603.1 -46.8118 1598.18 -37.0018 1597.05 -33.4956C1592.15 -18.3752 1586.85 -3.31714 1584.89 12.5426C1583.09 27.2467 1586.07 41.1038 1590.44 55.0738C1593.55 65.0147 1602.03 80.0764 1600.42 90.7616C1596.43 116.975 1570.31 128.35 1557.54 149.801C1554.26 155.301 1549.13 169.844 1550.2 183.469C1551.47 199.407 1557.94 212.946 1561.55 219.151C1571.01 235.434 1583.9 251.459 1585.24 268.678C1586.16 280.405 1583.72 291.271 1578.32 303.224C1576.05 308.222 1568.86 314.158 1564.17 317.191C1554.21 323.611 1538.66 321.228 1530.71 313.021C1528.78 311.035 1524.94 306.208 1523.93 301.043C1520.65 284.328 1529.41 286.039 1530.09 299.751C1530.53 308.635 1536.91 317.677 1546.48 313.145C1551.31 310.864 1553.32 305.131 1555.97 300.737C1560 294.021 1563.9 287.867 1565.05 279.873C1567.69 261.647 1554.39 243.619 1535.67 242.41C1523.22 241.617 1507.89 244.663 1500.43 255C1481.41 281.396 1489.23 304.027 1493.36 313.624C1500.71 330.753 1515.1 343.174 1532.38 350.194C1533.63 350.705 1501.1 352.734 1493.12 354.544C1470.23 359.74 1449.7 374.082 1437.38 394.109C1426.89 411.203 1418.07 429.329 1407.76 445.986C1400.24 458.158 1391.7 472.419 1380.61 481.622C1372.87 488.026 1359.39 503.066 1349.26 505.887C1343.93 507.382 1288.32 486.604 1266.73 502.178C1241.18 520.596 1237.46 555.791 1219.8 580.094C1218.2 582.299 1216.93 584.604 1214.31 586.073C1205.51 590.955 1154.43 588.704 1137.66 586.062C1113.44 582.241 1092.17 572.117 1073.45 586.119C1063.66 593.436 1057.9 605.211 1052.12 615.456C1047.96 608.816 1042.27 604.033 1036.52 599.797C1017.96 586.092 995.645 577.12 972.394 581.721C965.015 583.177 957.95 585.937 951.489 589.806C947.588 592.148 937.758 601.574 937.758 601.574C937.758 601.574 929.217 591.13 926.028 589.073C920.182 585.297 912.893 583.838 905.993 584.11C882.559 585.03 869.285 605.548 849.944 615.297C836.232 622.195 820.712 625.267 806.047 629.518C800.754 631.046 791.945 634.094 790.876 640.53C790.281 644.161 793.169 647.504 796.005 649.373C802.771 653.827 811.052 656.219 818.154 660.255C827.055 665.338 836.12 673.404 845.589 679.996ZM1128.7 672.679C1128.47 673.616 1127.88 676.384 1124.99 678.175C1121.64 680.237 1115.3 678.762 1112.96 677.911C1109.13 676.492 1107.29 673.38 1104.67 670.559C1103.9 669.736 1102.43 668.545 1101.32 669.476C1099.98 670.612 1101.87 672.607 1102.72 673.336C1105.57 675.768 1109.43 677.558 1113.06 678.485C1123.21 681.087 1134.17 676.996 1143.14 672.412C1143.96 671.986 1145.76 670.975 1146.61 670.333C1149.42 668.208 1152.21 666.04 1154.89 663.726C1165.66 654.494 1175.19 643.912 1186.22 634.939C1189.47 632.304 1192.87 629.34 1195.36 625.964C1196.07 625.007 1197.52 623.139 1196.49 621.942C1194.59 619.76 1188.45 620.626 1185.97 620.704C1176.62 620.95 1167.44 621.744 1158.16 620.072C1143.92 617.497 1130.23 612.168 1116.07 609.169C1102.72 606.326 1089.74 606.877 1079.96 617.67C1076.82 621.125 1074.47 625.431 1072.47 629.614C1070.24 634.325 1067.37 639.745 1066.25 644.869C1065.64 647.753 1067.64 656.46 1067.64 656.46C1067.64 656.46 1078.8 644.554 1082.98 641.926C1094.91 634.41 1111.17 632.318 1121.72 644.244C1123.75 646.54 1125.16 649.169 1126.37 651.967C1127.76 655.179 1130.84 664.09 1128.7 672.679ZM1411.49 498.393C1418.5 489.613 1430.5 473.444 1436.09 463.909C1453.97 433.465 1466.88 404.085 1488.88 396.066C1499.85 392.075 1516.84 391.569 1533.08 393.951C1540.91 395.095 1549.52 395.899 1557.43 396.182C1560.76 396.293 1564.97 395.81 1567.5 398.459C1571.1 402.243 1564.54 409.891 1562.36 412.684C1553.65 423.839 1550.4 433.888 1538.3 446.665C1534.4 450.79 1526.62 455.189 1522.82 453.687C1515.84 450.93 1525.24 446.262 1528.02 443.841C1532.33 440.08 1535.98 435.585 1537.88 430.111C1544.42 411.238 1521.96 396.962 1505.47 398.573C1479.58 401.081 1466.05 428.295 1472.86 452.03C1475.86 462.468 1479.27 466.817 1481.85 471.021C1481.34 471.547 1481.07 474.354 1480.81 475.139C1479.72 478.5 1478.26 481.721 1476.72 484.905C1471.78 495.177 1465.47 504.825 1459.55 514.56C1454.71 522.539 1449.66 530.407 1443.42 537.396C1429.46 553.029 1405.13 562.525 1405.13 562.525C1405.13 562.525 1433 520.258 1440.89 506.946C1448.53 494.028 1440.47 487.522 1433.12 490.119C1427.46 492.12 1416.72 495.729 1411.49 498.393Z" fill="white"/>
</svg>
